<?xml version="1.0" encoding="utf-8"?>
<!-- Generator: Adobe Illustrator 21.0.0, SVG Export Plug-In . SVG Version: 6.00 Build 0)  -->
<svg version="1.1" id="Layer_1" xmlns="http://www.w3.org/2000/svg" xmlns:xlink="http://www.w3.org/1999/xlink" x="0px" y="0px"
	 viewBox="0 0 100 100" style="enable-background:new 0 0 100 100;" xml:space="preserve">
<path d="M51.6,97.1V9.5l7.6,7.7c1,1,2.6,1,3.5,0l0,0c1-1,1-2.6,0-3.5l-13-12.9c-0.4-0.4-1-0.4-1.4,0l-13,12.9c-1,1-1,2.6,0,3.5l0,0
	c1,1,2.6,1,3.5,0l7.6-7.7v87.6c0,1.4,1.1,2.5,2.5,2.5l0,0C50.5,99.6,51.6,98.5,51.6,97.1z"/>
</svg>
