<svg width="33" height="33" viewBox="0 0 33 33" fill="none" xmlns="http://www.w3.org/2000/svg">
<g clip-path="url(#clip0_138_26)">
<path d="M24.0672 0H8.93278C4.00716 0 0 4.00716 0 8.93278V24.0674C0 28.9928 4.00716 32.9999 8.93278 32.9999H24.0674C28.9928 32.9999 32.9999 28.9928 32.9999 24.0674V8.93278C32.9999 4.00716 28.9928 0 24.0672 0V0ZM31.0653 24.0674C31.0653 27.926 27.926 31.0653 24.0672 31.0653H8.93278C5.07391 31.0653 1.9346 27.926 1.9346 24.0674V8.93278C1.9346 5.07391 5.07391 1.9346 8.93278 1.9346H24.0674C27.926 1.9346 31.0653 5.07391 31.0653 8.93278V24.0674Z" fill="#EFB7B7"/>
<path d="M16.5 7.47678C11.5245 7.47678 7.47681 11.5245 7.47681 16.4999C7.47681 21.4754 11.5245 25.5231 16.5 25.5231C21.4754 25.5231 25.5231 21.4754 25.5231 16.4999C25.5231 11.5245 21.4754 7.47678 16.5 7.47678ZM16.5 23.5885C12.5915 23.5885 9.4114 20.4087 9.4114 16.4999C9.4114 12.5915 12.5915 9.41137 16.5 9.41137C20.4087 9.41137 23.5885 12.5915 23.5885 16.4999C23.5885 20.4087 20.4087 23.5885 16.5 23.5885Z" fill="#EFB7B7"/>
<path d="M25.739 4.27228C24.2687 4.27228 23.0728 5.46843 23.0728 6.93852C23.0728 8.40885 24.2687 9.60501 25.739 9.60501C27.2093 9.60501 28.4055 8.40885 28.4055 6.93852C28.4055 5.46818 27.2093 4.27228 25.739 4.27228ZM25.739 7.67016C25.3357 7.67016 25.0074 7.34185 25.0074 6.93852C25.0074 6.53493 25.3357 6.20687 25.739 6.20687C26.1426 6.20687 26.4709 6.53493 26.4709 6.93852C26.4709 7.34185 26.1426 7.67016 25.739 7.67016Z" fill="#EFB7B7"/>
</g>
<defs>
<clipPath id="clip0_138_26">
<rect width="33" height="33" fill="white"/>
</clipPath>
</defs>
</svg>
