<svg width="39" height="39" viewBox="0 0 39 39" fill="none" xmlns="http://www.w3.org/2000/svg">
<circle cx="19.5" cy="19.5" r="19.5" fill="#EFB7B7"/>
<path d="M23.7792 30C23.6638 30.0002 23.5531 29.9546 23.4714 29.8731L13.9085 20.3102C13.7388 20.1405 13.7388 19.8653 13.9085 19.6956L23.4714 10.1327C23.6382 9.96002 23.9133 9.95526 24.086 10.122C24.2587 10.2888 24.2635 10.564 24.0967 10.7367C24.0932 10.7403 24.0897 10.7438 24.086 10.7473L14.8309 20.0025L24.0869 29.2576C24.2569 29.4271 24.2572 29.7024 24.0877 29.8723C24.0059 29.9542 23.8949 30.0002 23.7792 30Z" fill="#F44336"/>
<path d="M23.7792 30C23.6638 30.0002 23.5531 29.9546 23.4714 29.8731L13.9085 20.3102C13.7388 20.1405 13.7388 19.8653 13.9085 19.6956L23.4714 10.1327C23.6382 9.96002 23.9133 9.95526 24.086 10.122C24.2587 10.2888 24.2635 10.564 24.0967 10.7367C24.0932 10.7403 24.0897 10.7438 24.086 10.7473L14.8309 20.0025L24.0869 29.2576C24.2569 29.4271 24.2572 29.7024 24.0877 29.8723C24.0059 29.9542 23.8949 30.0002 23.7792 30Z" fill="black"/>
</svg>
