<svg width="33" height="33" viewBox="0 0 33 33" fill="none" xmlns="http://www.w3.org/2000/svg">
<g clip-path="url(#clip0_138_33)">
<path d="M31.7034 10.0781C30.8724 8.1132 29.683 6.3486 28.168 4.83344C26.653 3.31824 24.8885 2.12853 22.9237 1.29734C20.8891 0.436605 18.7281 0.000128906 16.5 0C14.273 0 12.1122 0.436348 10.0776 1.29689C8.11278 2.12792 6.34831 3.31747 4.83321 4.83247C3.31811 6.34747 2.12847 8.11188 1.29731 10.0766C0.436605 12.1112 0.000128935 14.272 2.85591e-08 16.499C-0.000128878 18.7262 0.436122 20.8872 1.2966 22.9219C2.12757 24.8869 3.31708 26.6514 4.83208 28.1666C6.34709 29.6818 8.11152 30.8715 10.0764 31.7027C12.111 32.5634 14.272 32.9999 16.4999 33H16.5002C18.7271 33 20.8879 32.5637 22.9225 31.7031C24.8874 30.8721 26.6518 29.6826 28.1669 28.1676C29.6819 26.6526 30.8716 24.8882 31.7028 22.9234C32.5635 20.8888 32.9999 18.728 33 16.501C33.0001 14.2738 32.5639 12.1129 31.7034 10.0781ZM16.5001 31.4637H16.4992C12.5022 31.4635 8.74458 29.9067 5.91844 27.0803C3.09236 24.2538 1.53608 20.4961 1.5363 16.4991C1.53679 8.24861 8.24949 1.53634 16.5009 1.53634C20.4978 1.53656 24.2555 3.09327 27.0815 5.9197C29.9076 8.74616 31.4639 12.5039 31.4637 16.5009C31.4632 24.7514 24.7506 31.4637 16.5001 31.4637Z" fill="#EFB7B7"/>
<path d="M4.97911 12.869C5.22725 13.5167 5.53312 14.1413 5.84881 14.7582C6.59894 16.2238 7.37145 17.648 8.40718 18.9362C9.45386 20.2381 10.6896 21.4997 12.1453 22.3418C12.5502 22.576 12.9758 22.7737 13.4191 22.9239C15.1297 23.5033 17.0058 23.4481 17.5852 23.0618C18.1646 22.6756 17.4748 20.1373 17.999 19.8338C18.5233 19.5303 19.4613 20.1925 20.151 20.7995C20.8408 21.4064 21.365 21.9306 21.7513 22.3445C21.9932 22.6036 22.1634 22.9129 22.4788 23.0978C23.0004 23.4035 23.6954 23.3696 24.2773 23.3712C24.6016 23.3722 24.9261 23.3733 25.2505 23.3692C25.4697 23.3665 25.689 23.3736 25.9081 23.363C26.2681 23.3455 26.7389 23.2034 26.7119 22.753C26.7055 22.6466 26.6819 22.5192 26.6395 22.4209C26.5486 22.2097 26.4205 21.9904 26.2828 21.8064C25.5655 20.8477 25.0896 20.358 24.731 19.9717C24.3723 19.5855 22.8962 18.1921 22.7997 17.9163C22.7031 17.6404 22.672 17.518 22.9462 17.1455C23.2204 16.773 23.8205 15.8332 24.2896 15.1573C24.5837 14.7334 24.8509 14.2901 25.1149 13.847C25.4262 13.3246 25.719 12.7895 25.9685 12.2347C26.08 11.9867 26.1813 11.7606 26.1122 11.4827C26.0659 11.2964 25.9611 11.1328 25.7661 11.0869C25.6596 11.0618 25.5435 11.0592 25.4345 11.0592C25.0276 11.0592 23.9653 11.0592 23.9653 11.0592C23.7733 11.0592 23.5813 11.0564 23.3892 11.0568C23.1924 11.0571 22.9939 11.0556 22.7976 11.0724C22.5183 11.0963 22.3471 11.3117 22.2067 11.5288C22.0348 11.7945 21.8784 12.071 21.7117 12.34C21.5977 12.5239 21.4861 12.7092 21.3766 12.8957C21.2054 13.1871 21.0291 13.4753 20.8527 13.7635C20.7795 13.8831 20.7061 14.0025 20.6339 14.1227C20.427 14.4675 18.6337 16.8264 18.275 16.9231C17.9164 17.0197 17.7922 16.9921 17.7922 16.2609C17.7922 15.5298 17.7922 11.3775 17.7922 11.3775C17.7922 11.3775 17.7647 11.0573 17.4612 11.0573C17.1577 11.0573 15.75 11.0573 15.75 11.0573H12.8467C12.8467 11.0573 12.1639 11.0602 12.4053 11.6741C12.6467 12.288 13.3606 12.4742 13.3606 13.4985C13.3606 14.5227 13.3606 17.5128 13.3606 17.5128C13.3606 17.5128 13.2399 18.4129 12.4605 17.6679C11.8463 17.0809 11.3402 16.3869 10.8931 15.6673C10.4282 14.9191 10.0536 14.1419 9.72002 13.3276C9.6246 13.0947 9.53011 12.8614 9.43211 12.6296C9.32982 12.3876 9.22847 12.1452 9.13037 11.9015C9.01645 11.6184 8.89457 11.2484 8.58739 11.1181C8.43296 11.0526 8.26216 11.0558 8.09754 11.0558C7.48708 11.056 6.87664 11.0577 6.26621 11.0565C6.08709 11.0562 5.90797 11.056 5.72886 11.0565C5.30595 11.0575 4.77995 11.045 4.67963 11.5733C4.62181 11.8776 4.73673 12.2025 4.83293 12.4875C4.87653 12.6171 4.93032 12.7416 4.97911 12.869Z" fill="#EFB7B7"/>
</g>
<defs>
<clipPath id="clip0_138_33">
<rect width="33" height="33" fill="white"/>
</clipPath>
</defs>
</svg>
