<svg width="33" height="33" viewBox="0 0 33 33" fill="none" xmlns="http://www.w3.org/2000/svg">
<g clip-path="url(#clip0_138_30)">
<path d="M28.3128 4.6872C25.2901 1.66445 21.2721 0 16.997 0C16.9967 0 16.9957 0 16.9955 0C14.8811 0.00025177 12.8206 0.40963 10.8717 1.21706C8.92248 2.02448 7.1762 3.19194 5.68094 4.6872C2.65844 7.7097 0.993992 11.7285 0.993992 16.003C0.993992 18.5522 1.60907 21.0855 2.77451 23.3426L0.0845985 31.0271C-0.104984 31.5692 0.0292091 32.1583 0.435566 32.5644C0.719814 32.8489 1.09394 33 1.47865 33C1.64356 33 1.81023 32.9723 1.97287 32.9154L9.6574 30.2257C11.9145 31.3912 14.4478 32.0063 16.997 32.0063C21.2715 32.0063 25.2901 30.3416 28.3128 27.3191C31.3353 24.2966 33 20.2778 33 16.0033C33 11.7285 31.3356 7.7097 28.3128 4.6872ZM26.9442 25.9504C24.2873 28.6076 20.7544 30.0707 16.997 30.0707C14.6983 30.0707 12.4148 29.5022 10.3931 28.4261C10.0265 28.2312 9.5932 28.1977 9.20421 28.3339L2.22263 30.7774L4.66631 23.7958C4.80252 23.4063 4.76878 22.973 4.57391 22.6067C3.4981 20.5855 2.92935 18.3019 2.92935 16.003C2.92935 12.2456 4.39264 8.71275 7.04956 6.05582C9.70624 3.39915 13.2386 1.93586 16.9957 1.93536H16.997C20.7547 1.93536 24.2873 3.39864 26.9442 6.05582C29.6014 8.71275 31.0646 12.2453 31.0646 16.003C31.0646 19.7607 29.6014 23.2935 26.9442 25.9504Z" fill="#EFB7B7"/>
<path d="M22.9444 17.4325C22.2082 16.6964 21.0103 16.6964 20.2741 17.4325L19.4689 18.2377C17.4696 17.1483 15.8518 15.5304 14.7621 13.5311L15.5673 12.726C16.3037 11.9898 16.3037 10.7919 15.5673 10.0557L13.3975 7.88593C12.6613 7.14976 11.4634 7.14976 10.7272 7.88593L8.99152 9.62164C7.99728 10.6159 7.94769 12.3251 8.85179 14.4347C9.63681 16.2663 11.0734 18.2795 12.897 20.1031C14.7206 21.9266 16.7337 23.3632 18.5653 24.1483C19.5676 24.5778 20.4793 24.792 21.2671 24.792C22.1374 24.792 22.8565 24.5304 23.3784 24.0085L25.1141 22.2726V22.2728C25.4709 21.9161 25.6673 21.442 25.6673 20.9377C25.6673 20.4331 25.4709 19.9591 25.1141 19.6026L22.9444 17.4325ZM22.0098 22.6399C21.7261 22.9237 20.8534 23.0231 19.3279 22.3695C17.7171 21.6792 15.9192 20.3881 14.2656 18.7345C12.612 17.0808 11.3212 15.2832 10.6308 13.6724C9.97695 12.1469 10.0764 11.274 10.3601 10.9903L12.0626 9.28779L14.1654 11.3908L13.1576 12.3989C12.7019 12.8546 12.5918 13.5457 12.8841 14.1188C14.2092 16.717 16.283 18.7908 18.8813 20.1159C19.4546 20.4082 20.1457 20.2984 20.6014 19.8425L21.6092 18.8347L23.7123 20.9377L22.0098 22.6399Z" fill="#EFB7B7"/>
</g>
<defs>
<clipPath id="clip0_138_30">
<rect width="33" height="33" fill="white"/>
</clipPath>
</defs>
</svg>
